<svg width="160" height="160" viewBox="0 0 160 160" fill="none" xmlns="http://www.w3.org/2000/svg">
<path d="M93.3333 13.3333H40C36.4638 13.3333 33.0724 14.7381 30.5719 17.2386C28.0714 19.739 26.6667 23.1304 26.6667 26.6666V133.333C26.6667 136.87 28.0714 140.261 30.5719 142.761C33.0724 145.262 36.4638 146.667 40 146.667H120C123.536 146.667 126.928 145.262 129.428 142.761C131.929 140.261 133.333 136.87 133.333 133.333V53.3333L93.3333 13.3333Z" stroke="#F0F2EF" stroke-width="5" stroke-linecap="round" stroke-linejoin="round"/>
<path d="M93.3333 13.3333V53.3333H133.333" stroke="#F0F2EF" stroke-width="5" stroke-linecap="round" stroke-linejoin="round"/>
<path d="M106.667 86.6667H53.3333" stroke="#F0F2EF" stroke-width="5" stroke-linecap="round" stroke-linejoin="round"/>
<path d="M106.667 113.333H53.3333" stroke="#F0F2EF" stroke-width="5" stroke-linecap="round" stroke-linejoin="round"/>
<path d="M66.6667 60H60H53.3333" stroke="#F0F2EF" stroke-width="5" stroke-linecap="round" stroke-linejoin="round"/>
</svg>
