<svg width="160" height="160" viewBox="0 0 160 160" fill="none" xmlns="http://www.w3.org/2000/svg">
<path d="M93.3333 13.3334H40C36.4637 13.3334 33.0724 14.7381 30.5719 17.2386C28.0714 19.7391 26.6666 23.1305 26.6666 26.6667V133.333C26.6666 136.87 28.0714 140.261 30.5719 142.761C33.0724 145.262 36.4637 146.667 40 146.667H120C123.536 146.667 126.928 145.262 129.428 142.761C131.929 140.261 133.333 136.87 133.333 133.333V53.3334L93.3333 13.3334Z" stroke="#F0F2EF" stroke-width="5" stroke-linecap="round" stroke-linejoin="round"/>
<path d="M93.3334 13.3334V53.3334H133.333" stroke="#F0F2EF" stroke-width="5" stroke-linecap="round" stroke-linejoin="round"/>
<path d="M79.9809 53.8053L101.519 75.3769C105.778 79.6402 108.68 85.073 109.856 90.988C111.032 96.903 110.431 103.035 108.127 108.607C105.824 114.18 101.922 118.943 96.915 122.294C91.9083 125.645 86.0218 127.434 80 127.434C73.9782 127.434 68.0916 125.645 63.085 122.294C58.0783 118.943 54.1764 114.18 51.8729 108.607C49.5694 103.035 48.9677 96.903 50.1439 90.988C51.3202 85.073 54.2215 79.6402 58.481 75.3769L79.9809 53.8053Z" stroke="#F0F2EF" stroke-width="5" stroke-linecap="round" stroke-linejoin="round"/>
</svg>
