<svg width="130" height="130" viewBox="0 0 130 130" fill="none" xmlns="http://www.w3.org/2000/svg">
<path d="M127.404 125.568L112.72 110.884C113.19 110.414 113.48 109.766 113.48 109.049V83.3531C113.48 82.665 113.206 82.0046 112.719 81.5176L64.9997 33.7972C64.9984 33.7959 64.9971 33.7959 64.9958 33.7946L41.1395 9.93891L26.4562 24.6221L19.114 17.2799L31.9618 4.43142C32.9756 3.41767 32.9756 1.775 31.9618 0.760612C30.9481 -0.253131 29.3054 -0.253131 28.291 0.760612L2.59603 26.4575C1.58229 27.4713 1.58229 29.1139 2.59603 30.1283C3.1029 30.6352 3.76717 30.889 4.43143 30.889C5.0957 30.889 5.75932 30.6352 6.26683 30.1283L15.4438 20.95L22.7861 28.2923L11.773 39.3047L37.4687 65.0003L83.3537 110.884C83.8406 111.371 84.5004 111.645 85.1891 111.645H106.602C106.722 112.035 106.905 112.41 107.215 112.719L123.734 129.239C124.241 129.746 124.905 129.999 125.569 129.999C126.233 129.999 126.897 129.746 127.405 129.239C128.418 128.225 128.418 126.582 127.404 125.568ZM37.468 57.6587L19.114 39.3047L41.1395 17.2799L59.4935 35.6339L37.468 57.6587ZM108.288 106.451H86.2632L76.0114 96.2009L85.1885 87.0239C86.2022 86.0101 86.2022 84.3674 85.1885 83.3531C84.1747 82.3387 82.532 82.3393 81.5176 83.3531L72.3406 92.5301L68.6698 88.8593L74.2184 83.3107C75.2322 82.2969 75.2322 80.6542 74.2184 79.6398C73.2047 78.6255 71.562 78.6261 70.5476 79.6398L64.999 85.1884L57.6568 77.8462L66.8338 68.6692C67.8475 67.6554 67.8475 66.0128 66.8338 64.9984C65.82 63.984 64.1774 63.9846 63.163 64.9984L53.986 74.1754L50.3139 70.5033L55.8631 64.9541C56.8769 63.9403 56.8769 62.2976 55.8631 61.2833C54.8494 60.2689 53.2067 60.2695 52.1923 61.2833L46.6431 66.8325L41.1375 61.3269L63.1643 39.3028L108.288 84.4265V106.451Z" fill="#F0F2EF"/>
</svg>
